<svg fill="none" height="59" width="302" xmlns="http://www.w3.org/2000/svg" xmlns:xlink="http://www.w3.org/1999/xlink"><linearGradient id="a"><stop offset="0" stop-color="#ed2027"/><stop offset="1" stop-color="#edb84b"/></linearGradient><linearGradient id="b" gradientUnits="userSpaceOnUse" x1="222.8" x2="148.78" xlink:href="#a" y1="33.48" y2="33.48"/><linearGradient id="c" gradientUnits="userSpaceOnUse" x1="222.8" x2="148.78" xlink:href="#a" y1="29.63" y2="29.63"/><linearGradient id="d" gradientUnits="userSpaceOnUse" x1="76.45" x2="133.33" y1="33.48" y2="33.48"><stop offset="0" stop-color="#0a6cb6"/><stop offset="1" stop-color="#7dcff4"/></linearGradient><clipPath id="e"><path d="m0 .5h301.21v58.27h-301.21z"/></clipPath><g clip-path="url(#e)"><path d="m301.21 33.48c0-13.96-11.32-25.28-25.28-25.28s-25.28 11.32-25.28 25.28v25.28h10.44v-25.28c0-8.2 6.64-14.84 14.84-14.84s14.84 6.64 14.84 14.84v25.28h10.44z" fill="url(#b)"/><path d="m223.16 48.32c-8.2 0-14.84-6.64-14.84-14.84s6.64-14.84 14.84-14.84 14.84 6.64 14.84 14.84-6.64 14.84-14.84 14.84zm14.84 5.63v4.81h10.44v-25.28c0-13.96-11.32-25.28-25.28-25.28s-25.28 11.32-25.28 25.28 11.32 25.28 25.28 25.28c5.33 0 10.52-1.68 14.84-4.81z" fill="url(#b)"/><path d="m170.4 48.32c-8.2 0-14.84-6.64-14.84-14.84s6.64-14.84 14.84-14.84 14.84 6.64 14.84 14.84-6.65 14.84-14.84 14.84zm25.28-47.82h-10.44v12.51c-11.31-8.2-27.11-5.68-35.31 5.63s-5.68 27.11 5.63 35.31 27.11 5.68 35.31-5.63c3.13-4.32 4.81-9.51 4.81-14.84z" fill="url(#c)"/><g fill="url(#d)"><path d="m117.63 48.32c-8.2 0-14.84-6.64-14.84-14.84s6.64-14.84 14.84-14.84 14.84 6.64 14.84 14.84-6.64 14.84-14.84 14.84zm25.28-14.84c0-13.96-11.32-25.28-25.28-25.28s-25.28 11.32-25.28 25.28 11.32 25.28 25.28 25.28 25.28-11.32 25.28-25.28z"/><path d="m88.55 22.99 7.38-7.38c-9.87-9.87-25.88-9.87-35.76 0-9.87 9.87-9.87 25.88 0 35.76 9.87 9.87 25.88 9.87 35.76 0l-7.38-7.38c-5.8 5.8-15.19 5.8-20.99 0s-5.8-15.19 0-20.99 15.19-5.8 20.99 0z"/><path d="m19.9 19.65c7.64-2.98 16.24.8 19.22 8.43h-27.66c1.51-3.87 4.57-6.92 8.43-8.43zm30.13 19.05c2.88-13.66-5.86-27.08-19.52-29.96-13.67-2.88-27.08 5.86-29.96 19.52s5.86 27.08 19.52 29.96c12.26 2.59 24.56-4.19 28.92-15.94h-11.75c-1.7 2.31-4.04 4.08-6.73 5.09-7.67 2.88-16.23-1-19.11-8.67z"/></g><path d="m298.77 1.17c.76.44 1.35 1.06 1.79 1.84.43.78.65 1.66.65 2.63s-.22 1.85-.65 2.62-1.03 1.38-1.79 1.83c-.76.44-1.62.67-2.6.67s-1.84-.22-2.61-.67c-.77-.44-1.37-1.05-1.8-1.83s-.65-1.65-.65-2.62.22-1.85.65-2.63 1.04-1.4 1.8-1.84c.77-.44 1.64-.67 2.61-.67s1.84.22 2.6.67zm.38 7.54c.76-.8 1.14-1.83 1.14-3.07s-.38-2.27-1.14-3.07-1.75-1.2-2.98-1.2-2.25.4-3.01 1.2-1.14 1.83-1.14 3.07.38 2.27 1.14 3.07 1.76 1.2 3.01 1.2 2.22-.4 2.98-1.2zm-1.11-3.13c-.24.28-.57.47-1 .55l1.54 2.2-1.3.03-1.41-2.17h-.59v2.17h-1.1v-5.51h2.38c.56 0 1.01.15 1.34.45s.5.7.5 1.21c0 .43-.12.78-.36 1.06zm-2.76-.32h1.2c.24 0 .43-.06.59-.18.15-.12.23-.3.23-.54s-.08-.41-.23-.52-.35-.17-.59-.17h-1.2z" fill="#ed2027"/></g></svg>